<svg width="40" height="40" viewBox="0 0 40 40" fill="none" xmlns="http://www.w3.org/2000/svg">
<g clip-path="url(#clip0_9404_10362)">
<path d="M26.5898 12.5371H26.0898V13.0371V28.9257V29.4257H26.5898H35.9505C37.951 29.4257 39.5913 27.7854 39.5913 25.7849V19.565C39.5913 18.8578 39.3812 18.1395 38.947 17.554L36.7395 14.1813C36.0948 13.1799 34.9532 12.5371 33.7335 12.5371H26.5898Z" fill="#FFE0B2" stroke="#545454"/>
<path d="M36.6372 19.7497V19.6317L36.5844 19.5261C36.5818 19.5208 36.5776 19.5112 36.5607 19.4437C36.56 19.4408 36.5593 19.4378 36.5585 19.4346C36.544 19.3763 36.5172 19.2684 36.4613 19.1566L36.4463 19.1267L36.4275 19.099L34.3337 16.0199L34.3072 15.9808L34.2738 15.9475C34.2681 15.9418 34.2619 15.9354 34.255 15.9284C34.1469 15.8184 33.888 15.5547 33.4891 15.5547H30.1636C29.5796 15.5547 29.1094 16.0249 29.1094 16.6089V20.7966C29.1094 21.3807 29.5796 21.8509 30.1636 21.8509H35.583H35.6325L35.681 21.8412C35.9324 21.7909 36.1597 21.6661 36.3291 21.4966C36.4953 21.3304 36.6372 21.087 36.6372 20.7966V19.7497Z" fill="#07BEEF" stroke="#545454"/>
<path d="M36.1363 19.7497V20.7966C36.1363 21.1045 35.89 21.3509 35.5821 21.3509H30.1011C29.7932 21.3509 29.5469 21.1045 29.5469 20.7966V16.6089C29.5469 16.301 29.7932 16.0547 30.1011 16.0547H31.0249V19.0723C31.0249 19.3802 31.2712 19.6265 31.5791 19.6265H36.0747C36.0747 19.6265 36.0747 19.6881 36.1363 19.7497Z" fill="#00B6E0"/>
<path d="M39.0913 25.477V25.7849C39.0913 27.5092 37.6749 28.9257 35.9505 28.9257H26.5898V13.0371H28.9916V22.8905C28.9916 24.3685 30.1617 25.5386 31.6397 25.5386H38.3523C38.6602 25.6002 38.9066 25.5386 39.0913 25.477Z" fill="#E8BD89"/>
<path d="M26.5905 29.488H27.0905V28.988V10.8825C27.0905 9.12832 25.6966 7.73438 23.9424 7.73438H3.55825C1.8041 7.73438 0.410156 9.12832 0.410156 10.8825V26.3399C0.410156 28.0941 1.8041 29.488 3.55825 29.488H26.5905Z" fill="#FC9F30" stroke="#545454"/>
<path d="M26.5905 24.3077V28.9265H3.55825C2.08024 28.9265 0.910156 27.7564 0.910156 26.2784V10.8825C0.910156 9.40446 2.08024 8.23438 3.55825 8.23438H6.57584V21.6596C6.57584 23.1376 7.74593 24.3077 9.22394 24.3077H26.5905Z" fill="#EA8E20"/>
<path d="M10.3328 32.32C12.2172 32.32 13.6657 30.7958 13.6657 28.9871C13.6657 27.1098 12.2102 25.6543 10.3328 25.6543C8.44847 25.6543 7 27.1785 7 28.9871C7 30.8715 8.52423 32.32 10.3328 32.32Z" fill="#607D8B" stroke="#545454"/>
<path d="M13.1041 29.5413C12.8578 30.8346 11.6877 31.8199 10.3328 31.8199C8.79325 31.8199 7.5 30.5883 7.5 28.9871C7.5 28.3097 7.74633 27.6938 8.11584 27.2012C8.05425 27.3859 8.05425 27.5707 8.05425 27.7554C8.05425 29.295 9.28592 30.5883 10.8871 30.5883C11.8109 30.5883 12.6114 30.1572 13.1041 29.5413Z" fill="#53737F"/>
<path d="M31.825 32.32C33.7094 32.32 35.1579 30.7958 35.1579 28.9871C35.1579 27.1028 33.6337 25.6543 31.825 25.6543C29.9407 25.6543 28.4922 27.1785 28.4922 28.9871C28.4922 30.8715 30.0164 32.32 31.825 32.32Z" fill="#607D8B" stroke="#545454"/>
<path d="M34.5963 29.5413C34.35 30.8346 33.1799 31.8199 31.825 31.8199C30.2854 31.8199 28.9922 30.5883 28.9922 28.9871C28.9922 28.3097 29.2385 27.6938 29.608 27.2012C29.5464 27.3859 29.5464 27.5707 29.5464 27.7554C29.5464 29.295 30.7781 30.5883 32.3793 30.5883C33.303 30.5883 34.042 30.1572 34.5963 29.5413Z" fill="#53737F"/>
</g>
<defs>
<clipPath id="clip0_9404_10362">
<rect width="40" height="40" fill="white"/>
</clipPath>
</defs>
</svg>
